<?xml version="1.0" encoding="iso-8859-1"?>
<!-- Generator: Adobe Illustrator 21.0.0, SVG Export Plug-In . SVG Version: 6.00 Build 0)  -->
<svg xmlns="http://www.w3.org/2000/svg" xmlns:xlink="http://www.w3.org/1999/xlink" version="1.1" id="Capa_1" x="0px" y="0px" viewBox="0 0 512 512" style="enable-background:new 0 0 512 512;" xml:space="preserve" width="512" height="512">
<g>
	<g>
		<path style="fill:#FF641A;" d="M256,0C115.3,0,0,115.3,0,256s115.3,256,256,256s256-115.3,256-256S396.7,0,256,0z"/>
	</g>
	<path style="fill:#F03800;" d="M512,256c0,140.7-115.3,256-256,256V0C396.7,0,512,115.3,512,256z"/>
	<g>
		<path style="fill:#ECECF1;" d="M319.6,256l74.399-74.399c5.7-5.7,5.7-15.3,0-21L351.4,118.001c-5.7-5.7-15.3-5.7-21,0L256,192.4    l-74.399-74.399c-5.7-5.7-15.3-5.7-21,0L118.001,160.6c-5.7,5.7-5.7,15.3,0,21L192.4,256l-74.399,74.399c-5.7,5.7-5.7,15.3,0,21    l42.599,42.599c5.7,5.7,15.3,5.7,21,0L256,319.6l74.399,74.399c5.102,5.102,14.252,6.077,21,0l42.599-42.599    c5.7-5.7,5.7-15.3,0-21L319.6,256z"/>
	</g>
	<path style="fill:#D3D3D8;" d="M393.999,330.399c5.7,5.7,5.7,15.3,0,21L351.4,393.999c-6.818,6.139-15.973,5.027-21,0L256,319.6   V192.4l74.399-74.399c5.7-5.7,15.3-5.7,21,0l42.599,42.599c5.7,5.7,5.7,15.3,0,21L319.6,256L393.999,330.399z"/>
</g>

</svg>
